<svg width="50" height="51" viewBox="0 0 50 51" fill="none" xmlns="http://www.w3.org/2000/svg">
<g id="ei:sc-youtube">
<path id="Vector" d="M39.7 19.4125C39.7 19.4125 39.4 17.3125 38.5 16.4125C37.4 15.2125 36.1 15.2125 35.5 15.1125C31.3 14.8125 25 14.8125 25 14.8125C25 14.8125 18.7 14.8125 14.5 15.1125C13.9 15.2125 12.6 15.2125 11.5 16.4125C10.6 17.3125 10.3 19.4125 10.3 19.4125C10.3 19.4125 10 21.8125 10 24.2125V26.4125C10 28.8125 10.3 31.3125 10.3 31.3125C10.3 31.3125 10.6 33.4125 11.5 34.3125C12.6 35.5125 14.1 35.5125 14.8 35.6125C17.2 35.7125 25 35.8125 25 35.8125C25 35.8125 31.3 35.8125 35.5 35.5125C36.1 35.4125 37.4 35.4125 38.5 34.2125C39.4 33.3125 39.7 31.2125 39.7 31.2125C39.7 31.2125 40 28.8125 40 26.4125V24.2125C40 21.8125 39.7 19.4125 39.7 19.4125ZM21.9 29.2125V20.8125L30 25.0125L21.9 29.2125Z" fill="white"/>
</g>
</svg>
