<svg width="24" height="16" viewBox="0 0 24 16" fill="none" xmlns="http://www.w3.org/2000/svg">
<path id="Vector" d="M16.802 5.71453C16.802 2.55739 13.0418 0.000244141 8.40102 0.000244141C3.76026 0.000244141 0 2.55739 0 5.71453C0 6.93953 0.569492 8.0681 1.5348 9.00024C0.993582 10.0788 0.100974 10.936 0.088857 10.9467C0 11.0288 -0.0242337 11.1502 0.0282727 11.2574C0.0807791 11.3645 0.19387 11.4288 0.323116 11.4288C1.80137 11.4288 3.02518 10.9895 3.90567 10.536C5.20621 11.0967 6.74505 11.4288 8.40102 11.4288C13.0418 11.4288 16.802 8.87167 16.802 5.71453ZM21.7296 13.5717C22.6949 12.6431 23.2644 11.511 23.2644 10.286C23.2644 7.89667 21.1035 5.85024 18.042 4.99667C18.0784 5.23239 18.0945 5.47167 18.0945 5.71453C18.0945 9.49667 13.7446 12.5717 8.40102 12.5717C7.96481 12.5717 7.54072 12.5431 7.12067 12.5038C8.39294 14.5574 11.3818 16.0002 14.8633 16.0002C16.5193 16.0002 18.0582 15.6717 19.3587 15.1074C20.2392 15.561 21.463 16.0002 22.9413 16.0002C23.0705 16.0002 23.1876 15.9324 23.2361 15.8288C23.2886 15.7252 23.2644 15.6038 23.1755 15.5181C23.1634 15.5074 22.2708 14.6538 21.7296 13.5717Z" fill="#FFA500"/>
</svg>
